<?xml version="1.0" standalone="no"?>
<!DOCTYPE svg PUBLIC "-//W3C//DTD SVG 20010904//EN"
 "http://www.w3.org/TR/2001/REC-SVG-20010904/DTD/svg10.dtd">
<svg version="1.0" xmlns="http://www.w3.org/2000/svg"
 width="512.000000pt" height="512.000000pt" viewBox="0 0 512.000000 512.000000"
 preserveAspectRatio="xMidYMid meet">

<g transform="translate(0.000000,512.000000) scale(0.100000,-0.100000)"
fill="#000000" stroke="none">
<path d="M2390 4836 c-209 -48 -451 -181 -715 -390 -243 -193 -798 -678 -945
-826 -214 -214 -308 -415 -350 -750 -32 -257 -37 -889 -10 -1225 49 -611 195
-949 492 -1145 197 -130 453 -194 875 -220 224 -13 1414 -13 1636 1 403 24
660 85 854 201 78 46 215 178 267 256 155 236 227 523 257 1037 15 259 6 901
-15 1072 -44 348 -121 528 -319 739 -80 86 -442 410 -706 632 -429 362 -646
503 -899 589 -97 33 -119 36 -237 39 -81 2 -151 -2 -185 -10z m283 -321 c250
-65 559 -288 1232 -890 305 -272 360 -332 424 -462 58 -117 85 -258 102 -525
15 -240 6 -871 -15 -1063 -78 -699 -252 -889 -881 -962 -131 -16 -252 -18
-975 -18 -844 0 -918 3 -1150 41 -494 83 -659 318 -722 1034 -17 194 -17 913
0 1080 23 220 60 360 124 467 48 82 174 211 422 432 384 343 675 583 842 694
112 74 262 149 345 171 71 19 181 20 252 1z"/>
<path d="M1886 1830 c-126 -38 -142 -223 -26 -289 38 -21 40 -21 707 -19 l668
3 33 23 c97 70 86 219 -22 271 -42 21 -54 21 -687 20 -354 0 -657 -5 -673 -9z"/>
</g>
</svg>
